<svg width="113" height="36" viewBox="0 0 113 36" fill="none" xmlns="http://www.w3.org/2000/svg">
<path d="M0.280518 18C0.280518 8.05887 8.33939 0 18.2805 0H94.2805C104.222 0 112.281 8.05887 112.281 18V18C112.281 27.9411 104.222 36 94.2805 36H18.2805C8.33939 36 0.280518 27.9411 0.280518 18V18Z" fill="#25BF88"/>
<path d="M0.280518 18C0.280518 8.05887 8.33939 0 18.2805 0H94.2805C104.222 0 112.281 8.05887 112.281 18V18C112.281 27.9411 104.222 36 94.2805 36H18.2805C8.33939 36 0.280518 27.9411 0.280518 18V18Z" fill="#25BF88"/>
<path d="M18.2805 36H94.2805C104.222 36 112.281 27.9411 112.281 18V18C112.281 8.05887 104.222 0 94.2805 0H18.2805C8.33939 0 0.280518 8.05887 0.280518 18V18C0.280518 27.9411 8.33939 36 18.2805 36Z" stroke="black"/>
</svg>
