<svg width="31" height="46" viewBox="0 0 31 46" fill="none" xmlns="http://www.w3.org/2000/svg">
<path d="M15.5 46C17.9426 46 19.9286 43.4305 19.9286 40.25H11.0714C11.0714 43.4305 13.0574 46 15.5 46ZM30.4049 32.5504C29.0694 30.6816 26.5645 27.8785 26.5645 18.6875C26.5645 11.7066 22.7933 6.11836 17.7143 4.74375V2.875C17.7143 1.28477 16.7248 0 15.5 0C14.2752 0 13.2857 1.28477 13.2857 2.875V4.74375C8.2067 6.11836 4.43549 11.7066 4.43549 18.6875C4.43549 27.8785 1.93058 30.6816 0.595089 32.5504C0.179911 33.1254 0 33.8172 0 34.5C0.00691964 35.9734 0.899553 37.375 2.22121 37.375H28.7788C30.1004 37.375 30.9931 35.9734 31 34.5C31 33.8172 30.8201 33.1254 30.4049 32.5504Z" fill="black"/>
</svg>
