<svg width="42" height="30" viewBox="0 0 42 30" fill="none" xmlns="http://www.w3.org/2000/svg">
<path d="M1.26693 29.5154C0.770976 29.3036 0.310005 28.8556 0.123287 28.404C-0.00319097 28.098 -0.0121874 27.0282 0.00869231 14.7292L0.0314886 1.3863L0.250187 1.04709C0.518923 0.630291 0.745718 0.434822 1.22595 0.206025L1.59662 0.0293973L20.8283 0.0101778C42.1564 -0.0112359 40.5596 -0.0492324 41.2528 0.493797C41.4517 0.649568 41.6985 0.945182 41.8058 1.15619L41.9998 1.53729V14.8425V28.1477L41.8048 28.5246C41.5688 28.9806 41.181 29.3304 40.6834 29.5363C40.314 29.6891 40.2448 29.6897 20.9959 29.6906L1.67901 29.6917L1.26693 29.5154ZM37.7177 16.9862C37.7177 10.0377 37.6967 8.28629 37.6148 8.33082C37.5584 8.36157 34.0631 10.8346 29.8479 13.8265C25.6328 16.8185 22.0345 19.3571 21.8516 19.4678C21.3359 19.7801 20.7303 19.8681 20.1544 19.7144C19.6345 19.5757 20.3693 20.0842 9.97809 12.6725L4.35599 8.66246V17.18V25.6975H21.0369H37.7177V16.9862ZM29.5065 9.03777L36.5685 4.02476L28.6585 4.00553C24.308 3.99509 17.1857 3.99509 12.831 4.00553L4.91344 4.02476L12.8034 9.6548L20.6933 15.2848L21.5689 14.6678C22.0505 14.3284 25.6224 11.7949 29.5065 9.03777Z" fill="black"/>
</svg>
