<svg width="45" height="50" viewBox="0 0 45 50" fill="none" xmlns="http://www.w3.org/2000/svg">
<path d="M19.5109 0.561939H19.7335L19.788 0.501419C30.1221 0.63396 38.5775 10.0328 38.5775 21.6787C38.5775 25.3105 37.6511 28.7655 36.1767 31.7385L35.9891 32.1169L36.3308 32.3652C36.6233 32.5777 36.8963 32.8239 37.1449 33.1003L37.145 33.1003L42.7195 39.2943L42.7293 39.3052L42.7398 39.3156C43.2703 39.8394 43.7017 40.4811 44.0051 41.203C44.3085 41.9249 44.4765 42.7099 44.4977 43.5095C44.5189 44.3092 44.3927 45.1043 44.1278 45.8455C43.8629 46.5867 43.4657 47.2565 42.963 47.8151C42.4604 48.3735 41.8634 48.8085 41.2106 49.0966C40.5579 49.3845 39.8614 49.5204 39.163 49.4975C38.4646 49.4747 37.7759 49.2935 37.1386 48.9629C36.5011 48.6321 35.9272 48.1581 35.4543 47.5667L35.4452 47.5554L35.4355 47.5446L29.8609 41.3506L29.8455 41.3334L29.8285 41.3178C29.588 41.0958 29.3659 40.849 29.165 40.5804L28.8921 40.2156L28.5035 40.4535C25.8554 42.0747 22.7136 42.9194 19.5109 42.9194C9.07641 42.9194 0.5 33.4697 0.5 21.7407C0.5 10.0117 9.07641 0.561939 19.5109 0.561939ZM19.5109 5.75586H19.2882L19.2308 5.81965C11.2646 5.95067 5.01879 13.0498 5.01879 21.8026C5.01879 30.6375 11.3821 37.7874 19.4551 37.7874C23.2121 37.7874 26.6847 36.3094 29.2314 33.737L29.2558 33.7124L29.2765 33.6847C29.4773 33.4161 29.6995 33.1694 29.94 32.9474L29.9569 32.9317L29.9724 32.9145L29.9727 32.9142L29.9731 32.9138L29.9734 32.9134L29.9737 32.9131L29.974 32.9127L29.9744 32.9123L29.9747 32.912L29.975 32.9116L29.9754 32.9113L29.9757 32.9109L29.976 32.9105L29.9763 32.9102L29.9767 32.9098L29.977 32.9094L29.9773 32.9091L29.9776 32.9087L29.978 32.9084L29.9783 32.908L29.9786 32.9076L29.9789 32.9073L29.9793 32.9069L29.9796 32.9065L29.9799 32.9062L29.9803 32.9058L29.9806 32.9055L29.9809 32.9051L29.9812 32.9047L29.9816 32.9044L29.9819 32.904L29.9822 32.9036L29.9825 32.9033L29.9829 32.9029L29.9832 32.9026L29.9835 32.9022L29.9838 32.9018L29.9842 32.9015L29.9845 32.9011L29.9848 32.9007L29.9852 32.9004L29.9855 32.9L29.9858 32.8997L29.9861 32.8993L29.9865 32.8989L29.9868 32.8986L29.9871 32.8982L29.9874 32.8978L29.9878 32.8975L29.9881 32.8971L29.9884 32.8967L29.9887 32.8964L29.9891 32.896L29.9894 32.8957L29.9897 32.8953L29.9901 32.8949L29.9904 32.8946L29.9907 32.8942L29.991 32.8938L29.9914 32.8935L29.9917 32.8931L29.992 32.8928L29.9923 32.8924L29.9927 32.892L29.993 32.8917L29.9933 32.8913L29.9936 32.8909L29.994 32.8906L29.9943 32.8902L29.9946 32.8899L29.9949 32.8895L29.9953 32.8891L29.9956 32.8888L29.9959 32.8884L29.9963 32.888L29.9966 32.8877L29.9969 32.8873L29.9972 32.8869L29.9976 32.8866L29.9979 32.8862L29.9982 32.8859L29.9985 32.8855L29.9989 32.8851L29.9992 32.8848L29.9995 32.8844L29.9998 32.884L30.0002 32.8837L30.0005 32.8833L30.0008 32.883L30.0012 32.8826L30.0015 32.8822L30.0018 32.8819L30.0021 32.8815L30.0025 32.8811L30.0028 32.8808L30.0031 32.8804L30.0034 32.8801L30.0038 32.8797L30.0041 32.8793L30.0044 32.879L30.0047 32.8786L30.0051 32.8782L30.0054 32.8779L30.0057 32.8775L30.0061 32.8771L30.0064 32.8768L30.0067 32.8764L30.007 32.8761L30.0074 32.8757L30.0077 32.8753L30.008 32.875L30.0083 32.8746L30.0087 32.8742L30.009 32.8739L30.0093 32.8735L30.0096 32.8732L30.01 32.8728L30.0103 32.8724L30.0106 32.8721L30.011 32.8717L30.0113 32.8713L30.0116 32.871L30.0119 32.8706L30.0123 32.8703L30.0126 32.8699L30.0129 32.8695L30.0132 32.8692L30.0136 32.8688L30.0139 32.8684L30.0142 32.8681L30.0145 32.8677L30.0149 32.8673L30.0152 32.867L30.0155 32.8666L30.0159 32.8663L30.0162 32.8659L30.0165 32.8655L30.0168 32.8652L30.0172 32.8648L30.0175 32.8644L30.0178 32.8641L30.0181 32.8637L30.0185 32.8634L30.0188 32.863L30.0191 32.8626L30.0194 32.8623L30.0198 32.8619L30.0201 32.8615L30.0204 32.8612L30.0208 32.8608L30.0211 32.8605L30.0214 32.8601L30.0217 32.8597L30.0221 32.8594L30.0224 32.859L30.0227 32.8586L30.023 32.8583L30.0234 32.8579L30.0237 32.8575L30.024 32.8572L30.0243 32.8568L30.0247 32.8565L30.025 32.8561L30.0253 32.8557L30.0257 32.8554L30.026 32.855L30.0263 32.8546L30.0266 32.8543L30.027 32.8539L30.0273 32.8536L30.0276 32.8532L30.0279 32.8528L30.0283 32.8525L30.0286 32.8521L30.0289 32.8517L30.0292 32.8514L30.0296 32.851L30.0299 32.8507L30.0302 32.8503L30.0306 32.8499L30.0309 32.8496L30.0312 32.8492L30.0315 32.8488L30.0319 32.8485L30.0322 32.8481L30.0325 32.8478L30.0328 32.8474L30.0332 32.847L30.0335 32.8467L30.0338 32.8463L30.0341 32.8459L30.0345 32.8456L30.0348 32.8452L30.0351 32.8448L30.0355 32.8445L30.0358 32.8441L30.0361 32.8438L30.0364 32.8434L30.0368 32.843L30.0371 32.8427L30.0374 32.8423L30.0377 32.8419L30.0381 32.8416L30.0384 32.8412L30.0387 32.8409L30.039 32.8405L30.0394 32.8401L30.0397 32.8398L30.04 32.8394L30.0404 32.839L30.0407 32.8387L30.041 32.8383L30.0413 32.838L30.0417 32.8376L30.042 32.8372L30.0423 32.8369L30.0426 32.8365L30.043 32.8361L30.0433 32.8358L30.0436 32.8354L30.0439 32.835L30.0443 32.8347L30.0446 32.8343L30.0449 32.834L30.0453 32.8336L30.0456 32.8332L30.0459 32.8329L30.0462 32.8325L30.0466 32.8321L30.0469 32.8318L30.0472 32.8314L30.0475 32.8311L30.0479 32.8307L30.0482 32.8303L30.0485 32.83L30.0488 32.8296L30.0492 32.8292L30.0495 32.8289L30.0498 32.8285L30.0502 32.8282L30.0505 32.8278L30.0508 32.8274L30.0511 32.8271L30.0515 32.8267L30.0518 32.8263L30.0521 32.826L30.0524 32.8256L30.0528 32.8252L30.0531 32.8249L30.0534 32.8245L30.0537 32.8242L30.0541 32.8238L30.0544 32.8234L30.0547 32.8231L30.0551 32.8227L30.0554 32.8223L30.0557 32.822L30.056 32.8216L30.0564 32.8213L30.0567 32.8209L30.057 32.8205L30.0573 32.8202L30.0577 32.8198L30.058 32.8194L30.0583 32.8191L30.0586 32.8187L30.059 32.8184L30.0593 32.818L30.0596 32.8176L30.0599 32.8173L30.0603 32.8169L30.0606 32.8165L30.0609 32.8162L30.0613 32.8158L30.0616 32.8154L30.0619 32.8151L30.0622 32.8147L30.0626 32.8144L30.0629 32.814L30.0632 32.8136L30.0635 32.8133L30.0639 32.8129L30.0642 32.8125L30.0645 32.8122L30.0648 32.8118L30.0652 32.8115L30.0655 32.8111L30.0658 32.8107L30.0662 32.8104L30.0665 32.81L30.0668 32.8096L30.0671 32.8093L30.0675 32.8089L30.0678 32.8086L30.0681 32.8082L30.0684 32.8078L30.0688 32.8075L30.0691 32.8071L30.0694 32.8067L30.0697 32.8064L30.0701 32.806L30.0704 32.8057L30.0707 32.8053L30.0711 32.8049L30.0714 32.8046L30.0717 32.8042L30.072 32.8038L30.0724 32.8035L30.0727 32.8031L30.073 32.8027L30.0733 32.8024L30.0737 32.802L30.074 32.8017L30.0743 32.8013L30.0746 32.8009L30.075 32.8006L30.0753 32.8002L30.0756 32.7998L30.076 32.7995L30.0763 32.7991L30.0766 32.7988L30.0769 32.7984L30.0773 32.798L30.0776 32.7977L30.0779 32.7973L30.0782 32.7969L30.0786 32.7966L30.0789 32.7962L30.0792 32.7959L30.0795 32.7955L30.0799 32.7951L30.0802 32.7948L30.0805 32.7944L30.0809 32.794L30.0812 32.7937L30.0815 32.7933L30.0818 32.7929L30.0822 32.7926L30.0825 32.7922L30.0828 32.7919L30.0831 32.7915L30.0835 32.7911L30.0838 32.7908L30.0841 32.7904L30.0844 32.79L30.0848 32.7897L30.0851 32.7893L30.0854 32.789L30.0858 32.7886L30.0861 32.7882L30.0864 32.7879L30.0867 32.7875L30.0871 32.7871L30.0874 32.7868L30.0877 32.7864L30.088 32.7861L30.0884 32.7857L30.0887 32.7853L30.089 32.785L30.0893 32.7846L30.0897 32.7842L30.09 32.7839L30.0903 32.7835L30.0907 32.7831L30.091 32.7828L30.0913 32.7824L30.0916 32.7821L30.092 32.7817L30.0923 32.7813L30.0926 32.781L30.0929 32.7806L30.0933 32.7802L30.0936 32.7799L30.0939 32.7795L30.0942 32.7792L30.0946 32.7788L30.0949 32.7784L30.0952 32.7781L30.0956 32.7777L30.0959 32.7773L30.0962 32.777L30.0965 32.7766L30.0969 32.7763L30.0972 32.7759L30.0975 32.7755L30.0978 32.7752L30.0982 32.7748L30.0985 32.7744L30.0988 32.7741L30.0991 32.7737L30.0995 32.7733L30.0998 32.773L30.1001 32.7726L30.1005 32.7723L30.1008 32.7719L30.1011 32.7715L30.1014 32.7712L30.1018 32.7708L30.1021 32.7704L30.1024 32.7701L30.1027 32.7697L30.1031 32.7694L30.1034 32.769L30.1037 32.7686L30.104 32.7683L30.1044 32.7679L30.1047 32.7675L30.105 32.7672L30.1054 32.7668L30.1057 32.7665L30.106 32.7661L30.1063 32.7657L30.1067 32.7654L30.107 32.765L30.1073 32.7646L30.1076 32.7643L30.108 32.7639L30.1083 32.7636L30.1086 32.7632L30.1089 32.7628L30.1093 32.7625L30.1096 32.7621L30.1099 32.7617L30.1103 32.7614L30.1106 32.761L30.1109 32.7606L30.1112 32.7603L30.1116 32.7599L30.1119 32.7596L30.1122 32.7592L30.1125 32.7588L30.1129 32.7585L30.1132 32.7581L30.1135 32.7577L30.1138 32.7574L30.1142 32.757L30.1145 32.7567L30.1148 32.7563L30.1152 32.7559L30.1155 32.7556L30.1158 32.7552L30.1161 32.7548L30.1165 32.7545L30.1168 32.7541L30.1171 32.7538L30.1174 32.7534L30.1178 32.753L30.1181 32.7527L30.1184 32.7523L30.1187 32.7519L30.1191 32.7516L30.1194 32.7512L30.1197 32.7509L30.1201 32.7505L30.1204 32.7501L30.1207 32.7498L30.121 32.7494L30.1214 32.749L30.1217 32.7487L30.122 32.7483L30.1223 32.7479L30.1227 32.7476L30.123 32.7472L30.1233 32.7469L30.1236 32.7465L30.124 32.7461L30.1243 32.7458L30.1246 32.7454L30.125 32.745L30.1253 32.7447L30.1256 32.7443L30.1259 32.744L30.1263 32.7436L30.1266 32.7432L30.1269 32.7429L30.1272 32.7425L30.1276 32.7421L30.1279 32.7418L30.1282 32.7414L30.1285 32.7411L30.1289 32.7407L30.1292 32.7403L30.1295 32.74L30.1299 32.7396L30.1302 32.7392L30.1305 32.7389L30.1308 32.7385L30.1312 32.7381L30.1315 32.7378L30.1318 32.7374L30.1321 32.7371L30.1325 32.7367L30.1328 32.7363L30.1331 32.736L30.1334 32.7356L30.1338 32.7352L30.1341 32.7349L30.1344 32.7345L30.1348 32.7342L30.1351 32.7338L30.1354 32.7334L30.1357 32.7331L30.1361 32.7327L30.1364 32.7323L30.1367 32.732L30.137 32.7316L30.1374 32.7313L30.1377 32.7309L30.138 32.7305L30.1383 32.7302L30.1387 32.7298L30.139 32.7294L30.1393 32.7291L30.1397 32.7287L30.1454 32.7224L30.1509 32.7158C32.5744 29.8306 33.9472 25.9356 33.9472 21.7407C33.9472 12.9058 27.5839 5.75586 19.5109 5.75586Z" fill="#878787" stroke="#878787"/>
</svg>
